<svg width="61" height="71" viewBox="0 0 61 71" fill="none" xmlns="http://www.w3.org/2000/svg">
<path d="M30.5 70.5C47.0685 70.5 60.5 57.5428 60.5 41.5593C60.5 25.5758 47.0685 12.6186 30.5 12.6186C13.9315 12.6186 0.5 25.5758 0.5 41.5593C0.5 57.5428 13.9315 70.5 30.5 70.5Z" fill="#295F2D"/>
<path d="M25.4606 49.0447L24.9218 49.1944C24.5825 48.6356 24.2432 48.2464 23.9039 48.0268C23.5646 47.8073 23.1454 47.6975 22.6465 47.6975C21.8082 47.6975 21.1196 48.0169 20.5808 48.6555C20.0618 49.2942 19.8024 50.1225 19.8024 51.1404C19.8024 52.757 20.6107 54.0843 22.2273 55.1221C23.844 56.16 25.9097 56.6789 28.4245 56.6789C31.0989 56.6789 33.2545 56.1001 34.8911 54.9425C36.5476 53.8048 37.3759 52.3179 37.3759 50.4817C37.3759 49.0048 36.827 47.8672 35.7293 47.0688C34.6316 46.2904 33.0649 45.9012 31.0291 45.9012H26.269C24.313 45.9012 22.7363 45.4422 21.5388 44.5241C20.3013 43.5661 19.6826 42.4185 19.6826 41.0812C19.6826 39.6642 20.3413 38.5465 21.6585 37.7282C22.3371 37.329 23.5746 36.8999 25.3708 36.4409C23.6344 35.6425 22.2872 34.5947 21.3292 33.2974C20.3712 31.9801 19.8922 30.5331 19.8922 28.9564C19.8922 26.9406 20.6406 25.1443 22.1375 23.5676C23.0157 22.6295 24.0536 21.9011 25.2511 21.3821C26.4486 20.8632 27.676 20.6037 28.9334 20.6037C30.8495 20.6037 32.8054 21.2823 34.8013 22.6395C35.7393 21.9011 36.5776 21.3821 37.316 21.0828C38.0745 20.7634 38.8928 20.6037 39.7709 20.6037C40.7489 20.6037 41.5373 20.8133 42.136 21.2324C42.8545 21.7514 43.2138 22.39 43.2138 23.1485C43.2138 23.6075 43.0741 23.9967 42.7947 24.316C42.5152 24.6154 42.166 24.7651 41.7468 24.7651C41.1082 24.7651 40.5294 24.4258 40.0104 23.7472L39.3219 22.8491C38.9427 22.3701 38.4038 22.1306 37.7052 22.1306C36.9668 22.1306 36.1884 22.4998 35.3701 23.2383C36.9867 25.2142 37.795 27.25 37.795 29.3456C37.795 31.9602 36.6374 34.0259 34.3222 35.5427C33.1646 36.3012 31.9172 36.8101 30.58 37.0696C30.1808 37.1294 28.9135 37.2292 26.7779 37.369C23.844 37.5486 22.377 38.3669 22.377 39.8239C22.377 41.1012 23.6244 41.7399 26.1193 41.7399H31.059C32.7954 41.7399 34.2624 41.8995 35.4599 42.2189C36.6574 42.5183 37.7052 42.9973 38.6034 43.6559C40.3597 44.9532 41.2379 46.7794 41.2379 49.1345C41.2379 51.7291 40.22 53.7549 38.1842 55.2119C36.0886 56.7088 33.015 57.4573 28.9634 57.4573C24.6124 57.4573 21.5288 56.5791 19.7126 54.8227C18.555 53.6851 17.9762 52.268 17.9762 50.5715C17.9762 49.2343 18.4053 48.0967 19.2635 47.1586C20.1217 46.2405 21.1695 45.7815 22.407 45.7815C23.3051 45.7815 24.0336 46.0509 24.5924 46.5898C25.1712 47.1287 25.4606 47.8372 25.4606 48.7154V49.0447ZM24.1434 29.166C24.1434 31.3215 24.5924 33.0779 25.4906 34.435C26.4087 35.7922 27.5762 36.4708 28.9933 36.4708C30.4303 36.4708 31.548 35.8022 32.3463 34.465C33.1447 33.1078 33.5439 31.2317 33.5439 28.8367C33.5439 26.3618 33.0249 24.3859 31.9871 22.909C31.2287 21.8112 30.2507 21.2624 29.0532 21.2624C27.6162 21.2624 26.4586 21.9809 25.5804 23.4179C25.1413 24.1364 24.792 25.0146 24.5326 26.0524C24.2731 27.0903 24.1434 28.1281 24.1434 29.166Z" fill="#FFE67C"/>
<path d="M33.6862 40.0673C43.4271 40.0673 51.3236 34.3213 51.3236 27.2333C51.3236 20.1453 43.4271 14.3994 33.6862 14.3994C23.9454 14.3994 16.0488 20.1453 16.0488 27.2333C16.0488 34.3213 23.9454 40.0673 33.6862 40.0673Z" fill="#295F2D"/>
<path d="M18.8709 25.3869C18.6638 27.133 18.8694 28.9016 19.4723 30.56C20.0752 32.2184 21.0597 33.7235 22.3519 34.9624C25.1072 37.5712 29.0236 38.642 32.7994 37.9693C34.9674 37.5843 36.9539 36.567 38.6003 35.1702C39.1525 34.702 39.0969 33.792 38.6003 33.3107C38.0526 32.7813 37.2294 32.8403 36.6727 33.3107C34.405 35.2347 31.2687 35.9873 28.4226 35.3201C27.0482 34.9907 25.7723 34.3567 24.6962 33.4684C23.6201 32.5802 22.7736 31.4621 22.2238 30.2031C21.5434 28.6269 21.3779 27.0791 21.5888 25.3836C21.6761 24.6792 20.9005 24.071 20.2281 24.071C19.4197 24.071 18.9548 24.677 18.8675 25.3836L18.8709 25.3869Z" fill="#FFE67C"/>
<path d="M30.17 32.8491C32.7657 32.8491 34.8699 30.8192 34.8699 28.3151C34.8699 25.8111 32.7657 23.7812 30.17 23.7812C27.5743 23.7812 25.4701 25.8111 25.4701 28.3151C25.4701 30.8192 27.5743 32.8491 30.17 32.8491Z" fill="#6CB24B"/>
<path d="M30.5 66.35C44.6926 66.35 56.1981 55.2508 56.1981 41.5593C56.1981 27.8678 44.6926 16.7686 30.5 16.7686C16.3073 16.7686 4.80188 27.8678 4.80188 41.5593C4.80188 55.2508 16.3073 66.35 30.5 66.35Z" stroke="#FFE67C" stroke-width="1.64075" stroke-miterlimit="10"/>
</svg>
